{
  "accessors": [
    {
      "bufferView": 2,
      "componentType": 5126,
      "count": 65532,
      "max": [
        6.364628791809082,
        5.3874406814575195,
        12.005064010620117
      ],
      "min": [
        -8.354238510131836,
        -7.199814319610596,
        0.4388694763183594
      ],
      "type": "VEC3"
    },
    {
      "bufferView": 2,
      "byteOffset": 786384,
      "componentType": 5126,
      "count": 65532,
      "max": [
        0.9999956488609314,
        0.999999463558197,
        0.9999977350234985
      ],
      "min": [
        -0.9999985098838806,
        -0.9999991059303284,
        -0.987436056137085
      ],
      "type": "VEC3"
    },
    {
      "bufferView": 3,
      "componentType": 5126,
      "count": 65532,
      "max": [
        1.0,
        0.9995036721229553,
        1.0,
        1.0
      ],
      "min": [
        -1.0,
        -0.9973636865615845,
        -1.0,
        -1.0
      ],
      "type": "VEC4"
    },
    {
      "bufferView": 1,
      "componentType": 5126,
      "count": 65532,
      "max": [
        0.9994704723358154,
        0.9916990995407104
      ],
      "min": [
        0.00048828125,
        0.0004828168312087655
      ],
      "type": "VEC2"
    },
    {
      "bufferView": 0,
      "componentType": 5125,
      "count": 281445,
      "type": "SCALAR"
    },
    {
      "bufferView": 2,
      "byteOffset": 1572768,
      "componentType": 5126,
      "count": 1137,
      "max": [
        -1.8910539150238037,
        3.496325969696045,
        3.7988624572753906
      ],
      "min": [
        -7.178476810455322,
        -1.0047764778137207,
        0.5049591064453125
      ],
      "type": "VEC3"
    },
    {
      "bufferView": 2,
      "byteOffset": 1586412,
      "componentType": 5126,
      "count": 1137,
      "max": [
        0.9998452663421631,
        0.9996317625045776,
        0.9996737241744995
      ],
      "min": [
        -0.9753656387329102,
        -0.9998300671577454,
        -0.29658520221710205
      ],
      "type": "VEC3"
    },
    {
      "bufferView": 3,
      "byteOffset": 1048512,
      "componentType": 5126,
      "count": 1137,
      "max": [
        0.9999975562095642,
        0.9470563530921936,
        0.9912421107292175,
        1.0
      ],
      "min": [
        -0.9999192357063293,
        -0.9788450002670288,
        -0.9999993443489075,
        -1.0
      ],
      "type": "VEC4"
    },
    {
      "bufferView": 1,
      "byteOffset": 524256,
      "componentType": 5126,
      "count": 1137,
      "max": [
        0.9993627667427063,
        0.5932615995407104
      ],
      "min": [
        0.00048828125,
        0.000493426457978785
      ],
      "type": "VEC2"
    },
    {
      "bufferView": 0,
      "byteOffset": 1125780,
      "componentType": 5125,
      "count": 2457,
      "type": "SCALAR"
    }
  ],
  "asset": {
    "extras": {
      "author": "carlosenriqueporraas (https://sketchfab.com/carlosenriqueporraas)",
      "license": "CC-BY-4.0 (http://creativecommons.org/licenses/by/4.0/)",
      "source": "https://sketchfab.com/3d-models/low-def-box-474d329f8e8749afae6df4fe7e11bff4",
      "title": "Low def box"
    },
    "generator": "Sketchfab-12.68.0",
    "version": "2.0"
  },
  "bufferViews": [
    {
      "buffer": 0,
      "byteLength": 1135608,
      "name": "floatBufferViews",
      "target": 34963
    },
    {
      "buffer": 0,
      "byteLength": 533352,
      "byteOffset": 1135608,
      "byteStride": 8,
      "name": "floatBufferViews",
      "target": 34962
    },
    {
      "buffer": 0,
      "byteLength": 1600056,
      "byteOffset": 1668960,
      "byteStride": 12,
      "name": "floatBufferViews",
      "target": 34962
    },
    {
      "buffer": 0,
      "byteLength": 1066704,
      "byteOffset": 3269016,
      "byteStride": 16,
      "name": "floatBufferViews",
      "target": 34962
    }
  ],
  "buffers": [
    {
      "byteLength": 4335720,
      "uri": "scene.bin"
    }
  ],
  "images": [
    {
      "uri": "textures/tex_u1_v1_baseColor.jpeg"
    },
    {
      "uri": "textures/tex_u1_v1_normal.png"
    }
  ],
  "materials": [
    {
      "doubleSided": true,
      "name": "tex_u1_v1",
      "normalTexture": {
        "index": 1
      },
      "pbrMetallicRoughness": {
        "baseColorTexture": {
          "index": 0
        },
        "metallicFactor": 0.0
      }
    }
  ],
  "meshes": [
    {
      "name": "Object_0",
      "primitives": [
        {
          "attributes": {
            "NORMAL": 1,
            "POSITION": 0,
            "TANGENT": 2,
            "TEXCOORD_0": 3
          },
          "indices": 4,
          "material": 0,
          "mode": 4
        }
      ]
    },
    {
      "name": "Object_1",
      "primitives": [
        {
          "attributes": {
            "NORMAL": 6,
            "POSITION": 5,
            "TANGENT": 7,
            "TEXCOORD_0": 8
          },
          "indices": 9,
          "material": 0,
          "mode": 4
        }
      ]
    }
  ],
  "nodes": [
    {
      "children": [
        1
      ],
      "matrix": [
        0.049866948276758194,
        0.0,
        0.0,
        0.0,
        0.0,
        1.1072686828929744e-17,
        -0.049866948276758194,
        0.0,
        0.0,
        0.049866948276758194,
        1.1072686828929744e-17,
        0.0,
        0.0,
        0.0,
        0.0,
        1.0
      ],
      "name": "Sketchfab_model"
    },
    {
      "children": [
        2,
        3
      ],
      "name": "model.obj.cleaner.materialmerger.gles"
    },
    {
      "mesh": 0,
      "name": "Object_2"
    },
    {
      "mesh": 1,
      "name": "Object_3"
    }
  ],
  "samplers": [
    {
      "magFilter": 9729,
      "minFilter": 9987,
      "wrapS": 10497,
      "wrapT": 10497
    }
  ],
  "scene": 0,
  "scenes": [
    {
      "name": "Sketchfab_Scene",
      "nodes": [
        0
      ]
    }
  ],
  "textures": [
    {
      "sampler": 0,
      "source": 0
    },
    {
      "sampler": 0,
      "source": 1
    }
  ]
}
