{
  "accessors": [
    {
      "bufferView": 2,
      "componentType": 5126,
      "count": 63238,
      "max": [
        16.284832000732422,
        15.125605583190918,
        17.93031120300293
      ],
      "min": [
        -22.337066650390625,
        -18.031328201293945,
        -2.9932518005371094
      ],
      "type": "VEC3"
    },
    {
      "bufferView": 2,
      "byteOffset": 758856,
      "componentType": 5126,
      "count": 63238,
      "max": [
        0.9999672174453735,
        0.999988853931427,
        0.9999995827674866
      ],
      "min": [
        -0.9999978542327881,
        -0.9999986290931702,
        -1.0
      ],
      "type": "VEC3"
    },
    {
      "bufferView": 3,
      "componentType": 5126,
      "count": 63238,
      "max": [
        1.0,
        0.9996387958526611,
        1.0,
        1.0
      ],
      "min": [
        -1.0,
        -0.9999579191207886,
        -1.0,
        -1.0
      ],
      "type": "VEC4"
    },
    {
      "bufferView": 1,
      "componentType": 5126,
      "count": 63238,
      "max": [
        0.9994894862174988,
        0.9565428495407104
      ],
      "min": [
        0.00048828125,
        0.0004941417137160897
      ],
      "type": "VEC2"
    },
    {
      "bufferView": 0,
      "componentType": 5125,
      "count": 300006,
      "type": "SCALAR"
    }
  ],
  "asset": {
    "extras": {
      "author": "carlosenriqueporraas (https://sketchfab.com/carlosenriqueporraas)",
      "license": "CC-BY-4.0 (http://creativecommons.org/licenses/by/4.0/)",
      "source": "https://sketchfab.com/3d-models/low-def-pallet-946c7eadfbdb4476a161882740bbe083",
      "title": "Low def Pallet"
    },
    "generator": "Sketchfab-12.68.0",
    "version": "2.0"
  },
  "bufferViews": [
    {
      "buffer": 0,
      "byteLength": 1200024,
      "name": "floatBufferViews",
      "target": 34963
    },
    {
      "buffer": 0,
      "byteLength": 505904,
      "byteOffset": 1200024,
      "byteStride": 8,
      "name": "floatBufferViews",
      "target": 34962
    },
    {
      "buffer": 0,
      "byteLength": 1517712,
      "byteOffset": 1705928,
      "byteStride": 12,
      "name": "floatBufferViews",
      "target": 34962
    },
    {
      "buffer": 0,
      "byteLength": 1011808,
      "byteOffset": 3223640,
      "byteStride": 16,
      "name": "floatBufferViews",
      "target": 34962
    }
  ],
  "buffers": [
    {
      "byteLength": 4235448,
      "uri": "scene.bin"
    }
  ],
  "images": [
    {
      "uri": "textures/tex_u1_v1_baseColor.jpeg"
    },
    {
      "uri": "textures/tex_u1_v1_normal.png"
    }
  ],
  "materials": [
    {
      "doubleSided": true,
      "name": "tex_u1_v1",
      "normalTexture": {
        "index": 1
      },
      "pbrMetallicRoughness": {
        "baseColorTexture": {
          "index": 0
        },
        "metallicFactor": 0.0
      }
    }
  ],
  "meshes": [
    {
      "name": "Object_0",
      "primitives": [
        {
          "attributes": {
            "NORMAL": 1,
            "POSITION": 0,
            "TANGENT": 2,
            "TEXCOORD_0": 3
          },
          "indices": 4,
          "material": 0,
          "mode": 4
        }
      ]
    }
  ],
  "nodes": [
    {
      "children": [
        1
      ],
      "matrix": [
        0.04257171638094004,
        1.7238488971005729e-18,
        -0.007763525250625181,
        0.0,
        -0.007763525250625181,
        9.452819944786315e-18,
        -0.04257171638094004,
        0.0,
        0.0,
        0.043273817747831345,
        9.608717765415019e-18,
        0.0,
        -0.3097445070743561,
        1.1531706390756038e-16,
        -0.5193418860435486,
        1.0
      ],
      "name": "Sketchfab_model"
    },
    {
      "children": [
        2
      ],
      "name": "model.obj.cleaner.materialmerger.gles"
    },
    {
      "mesh": 0,
      "name": "Object_2"
    }
  ],
  "samplers": [
    {
      "magFilter": 9729,
      "minFilter": 9987,
      "wrapS": 10497,
      "wrapT": 10497
    }
  ],
  "scene": 0,
  "scenes": [
    {
      "name": "Sketchfab_Scene",
      "nodes": [
        0
      ]
    }
  ],
  "textures": [
    {
      "sampler": 0,
      "source": 0
    },
    {
      "sampler": 0,
      "source": 1
    }
  ]
}
