{
  "accessors": [
    {
      "bufferView": 2,
      "componentType": 5126,
      "count": 15265,
      "max": [
        6.519134044647217,
        9.306029319763184,
        13.010597229003906
      ],
      "min": [
        -6.007765293121338,
        -11.705400466918945,
        0.356719970703125
      ],
      "type": "VEC3"
    },
    {
      "bufferView": 2,
      "byteOffset": 183180,
      "componentType": 5126,
      "count": 15265,
      "max": [
        0.9998215436935425,
        0.9999474883079529,
        0.9999919533729553
      ],
      "min": [
        -0.9997891783714294,
        -0.9999537467956543,
        -1.0
      ],
      "type": "VEC3"
    },
    {
      "bufferView": 3,
      "componentType": 5126,
      "count": 15265,
      "max": [
        1.0,
        1.0,
        0.9999949932098389,
        1.0
      ],
      "min": [
        -1.0,
        -0.9993841648101807,
        -0.9999943971633911,
        -1.0
      ],
      "type": "VEC4"
    },
    {
      "bufferView": 1,
      "componentType": 5126,
      "count": 15265,
      "max": [
        0.9992907047271729,
        0.9995115995407104
      ],
      "min": [
        0.0,
        0.0
      ],
      "type": "VEC2"
    },
    {
      "bufferView": 0,
      "componentType": 5125,
      "count": 57606,
      "type": "SCALAR"
    }
  ],
  "asset": {
    "extras": {
      "author": "carlosenriqueporraas (https://sketchfab.com/carlosenriqueporraas)",
      "license": "CC-BY-4.0 (http://creativecommons.org/licenses/by/4.0/)",
      "source": "https://sketchfab.com/3d-models/low-def-pallet-truck-521db8089c2048ecb0e316f28485514e",
      "title": "Low def Pallet truck"
    },
    "generator": "Sketchfab-12.68.0",
    "version": "2.0"
  },
  "bufferViews": [
    {
      "buffer": 0,
      "byteLength": 230424,
      "name": "floatBufferViews",
      "target": 34963
    },
    {
      "buffer": 0,
      "byteLength": 122120,
      "byteOffset": 230424,
      "byteStride": 8,
      "name": "floatBufferViews",
      "target": 34962
    },
    {
      "buffer": 0,
      "byteLength": 366360,
      "byteOffset": 352544,
      "byteStride": 12,
      "name": "floatBufferViews",
      "target": 34962
    },
    {
      "buffer": 0,
      "byteLength": 244240,
      "byteOffset": 718904,
      "byteStride": 16,
      "name": "floatBufferViews",
      "target": 34962
    }
  ],
  "buffers": [
    {
      "byteLength": 963144,
      "uri": "scene.bin"
    }
  ],
  "images": [
    {
      "uri": "textures/tex_u1_v1_baseColor.jpeg"
    },
    {
      "uri": "textures/tex_u1_v1_normal.png"
    }
  ],
  "materials": [
    {
      "doubleSided": true,
      "name": "tex_u1_v1",
      "normalTexture": {
        "index": 1
      },
      "pbrMetallicRoughness": {
        "baseColorTexture": {
          "index": 0
        },
        "metallicFactor": 0.0
      }
    }
  ],
  "meshes": [
    {
      "name": "Object_0",
      "primitives": [
        {
          "attributes": {
            "NORMAL": 1,
            "POSITION": 0,
            "TANGENT": 2,
            "TEXCOORD_0": 3
          },
          "indices": 4,
          "material": 0,
          "mode": 4
        }
      ]
    }
  ],
  "nodes": [
    {
      "children": [
        1
      ],
      "matrix": [
        0.02236327022557938,
        0.008349642374522204,
        -0.10036359510135595,
        0.0,
        -0.10071031971454758,
        0.0018540832668580887,
        -0.022286278385584835,
        0.0,
        7.158397756579173e-19,
        0.10280821668779083,
        0.008553020338250306,
        0.0,
        -1.2168323993682861,
        0.023877795785665314,
        0.8971351981163025,
        1.0
      ],
      "name": "Sketchfab_model"
    },
    {
      "children": [
        2
      ],
      "name": "model.obj.cleaner.materialmerger.gles"
    },
    {
      "mesh": 0,
      "name": "Object_2"
    }
  ],
  "samplers": [
    {
      "magFilter": 9729,
      "minFilter": 9987,
      "wrapS": 10497,
      "wrapT": 10497
    }
  ],
  "scene": 0,
  "scenes": [
    {
      "name": "Sketchfab_Scene",
      "nodes": [
        0
      ]
    }
  ],
  "textures": [
    {
      "sampler": 0,
      "source": 0
    },
    {
      "sampler": 0,
      "source": 1
    }
  ]
}
