{
  "accessors": [
    {
      "bufferView": 0,
      "componentType": 5126,
      "count": 2825,
      "max": [
        44.61549758911133,
        -14.913897514343262,
        11.879622459411621
      ],
      "min": [
        5.487263202667236,
        -15.138846397399902,
        10.874991416931152
      ],
      "type": "VEC3"
    },
    {
      "bufferView": 0,
      "byteOffset": 12,
      "componentType": 5126,
      "count": 2825,
      "type": "VEC3"
    },
    {
      "bufferView": 0,
      "byteOffset": 24,
      "componentType": 5126,
      "count": 2825,
      "type": "VEC2"
    },
    {
      "bufferView": 0,
      "byteOffset": 32,
      "componentType": 5126,
      "count": 2825,
      "type": "VEC2"
    },
    {
      "bufferView": 0,
      "byteOffset": 40,
      "componentType": 5126,
      "count": 2825,
      "type": "VEC2"
    },
    {
      "bufferView": 0,
      "byteOffset": 48,
      "componentType": 5126,
      "count": 2825,
      "type": "VEC2"
    },
    {
      "bufferView": 1,
      "componentType": 5125,
      "count": 11736,
      "type": "SCALAR"
    },
    {
      "bufferView": 2,
      "componentType": 5126,
      "count": 20679,
      "max": [
        56.98149490356445,
        13.483442306518555,
        14.935407638549805
      ],
      "min": [
        -6.953680992126465,
        -13.561959266662598,
        -14.993297576904297
      ],
      "type": "VEC3"
    },
    {
      "bufferView": 2,
      "byteOffset": 12,
      "componentType": 5126,
      "count": 20679,
      "type": "VEC3"
    },
    {
      "bufferView": 2,
      "byteOffset": 24,
      "componentType": 5126,
      "count": 20679,
      "type": "VEC2"
    },
    {
      "bufferView": 2,
      "byteOffset": 32,
      "componentType": 5126,
      "count": 20679,
      "type": "VEC2"
    },
    {
      "bufferView": 2,
      "byteOffset": 40,
      "componentType": 5126,
      "count": 20679,
      "type": "VEC2"
    },
    {
      "bufferView": 2,
      "byteOffset": 48,
      "componentType": 5126,
      "count": 20679,
      "type": "VEC2"
    },
    {
      "bufferView": 3,
      "componentType": 5125,
      "count": 72648,
      "type": "SCALAR"
    },
    {
      "bufferView": 4,
      "componentType": 5126,
      "count": 15883,
      "max": [
        57.53010177612305,
        13.986128807067871,
        14.93637752532959
      ],
      "min": [
        -7.383162975311279,
        -15.596137046813965,
        -14.892123222351074
      ],
      "type": "VEC3"
    },
    {
      "bufferView": 4,
      "byteOffset": 12,
      "componentType": 5126,
      "count": 15883,
      "type": "VEC3"
    },
    {
      "bufferView": 5,
      "componentType": 5125,
      "count": 73230,
      "type": "SCALAR"
    },
    {
      "bufferView": 6,
      "componentType": 5126,
      "count": 4925,
      "max": [
        32.98419952392578,
        14.713035583496094,
        0.6250064969062805
      ],
      "min": [
        -33.058326721191406,
        -14.75698471069336,
        -27.000608444213867
      ],
      "type": "VEC3"
    },
    {
      "bufferView": 6,
      "byteOffset": 12,
      "componentType": 5126,
      "count": 4925,
      "type": "VEC3"
    },
    {
      "bufferView": 6,
      "byteOffset": 24,
      "componentType": 5126,
      "count": 4925,
      "type": "VEC2"
    },
    {
      "bufferView": 6,
      "byteOffset": 32,
      "componentType": 5126,
      "count": 4925,
      "type": "VEC2"
    },
    {
      "bufferView": 6,
      "byteOffset": 40,
      "componentType": 5126,
      "count": 4925,
      "type": "VEC2"
    },
    {
      "bufferView": 6,
      "byteOffset": 48,
      "componentType": 5126,
      "count": 4925,
      "type": "VEC2"
    },
    {
      "bufferView": 6,
      "byteOffset": 56,
      "componentType": 5126,
      "count": 4925,
      "type": "VEC2"
    },
    {
      "bufferView": 6,
      "byteOffset": 64,
      "componentType": 5126,
      "count": 4925,
      "type": "VEC2"
    },
    {
      "bufferView": 6,
      "byteOffset": 72,
      "componentType": 5126,
      "count": 4925,
      "type": "VEC2"
    },
    {
      "bufferView": 7,
      "componentType": 5125,
      "count": 10260,
      "type": "SCALAR"
    }
  ],
  "asset": {
    "version": "2.0"
  },
  "bufferViews": [
    {
      "buffer": 0,
      "byteLength": 158200,
      "byteStride": 56,
      "target": 34962
    },
    {
      "buffer": 0,
      "byteLength": 46944,
      "byteOffset": 158200,
      "target": 34963
    },
    {
      "buffer": 0,
      "byteLength": 1158024,
      "byteOffset": 205144,
      "byteStride": 56,
      "target": 34962
    },
    {
      "buffer": 0,
      "byteLength": 290592,
      "byteOffset": 1363168,
      "target": 34963
    },
    {
      "buffer": 0,
      "byteLength": 889448,
      "byteOffset": 1653760,
      "byteStride": 56,
      "target": 34962
    },
    {
      "buffer": 0,
      "byteLength": 292920,
      "byteOffset": 2543208,
      "target": 34963
    },
    {
      "buffer": 0,
      "byteLength": 394000,
      "byteOffset": 2836128,
      "byteStride": 80,
      "target": 34962
    },
    {
      "buffer": 0,
      "byteLength": 41040,
      "byteOffset": 3230128,
      "target": 34963
    }
  ],
  "buffers": [
    {
      "byteLength": 3271168,
      "uri": "scene.bin"
    }
  ],
  "images": [
    {
      "uri": "Black_Metals001_AmbientOcclusion.png"
    },
    {
      "uri": "Black_Metal_Simple_GLTFbasecolortexture.jpeg"
    },
    {
      "uri": "Black_Metal_Simple_GLTFmetallicroughnesstex.jpeg"
    },
    {
      "uri": "Black_Rubber001_AmbientOcclusion.jpg"
    },
    {
      "uri": "Black_Rubber_Simple_GLTFbasecolortexture.jpeg"
    },
    {
      "uri": "Black_Rubber_Simple_GLTFmetallicroughnesstex.jpeg"
    },
    {
      "uri": "All_Wood_GLTFbasecolortexture.jpeg"
    }
  ],
  "materials": [
    {
      "name": "Black_Metal_Simple_GLTF",
      "occlusionTexture": {
        "index": 0,
        "texCoord": 3
      },
      "pbrMetallicRoughness": {
        "baseColorTexture": {
          "index": 1,
          "texCoord": 3
        },
        "metallicRoughnessTexture": {
          "index": 2,
          "texCoord": 3
        },
        "roughnessFactor": 0.20000000298023224
      }
    },
    {
      "name": "Black_Rubber_Simple_GLTF",
      "occlusionTexture": {
        "index": 3,
        "texCoord": 3
      },
      "pbrMetallicRoughness": {
        "baseColorTexture": {
          "index": 4,
          "texCoord": 3
        },
        "metallicRoughnessTexture": {
          "index": 5,
          "texCoord": 3
        },
        "roughnessFactor": 0.6000000238418579
      }
    },
    {
      "name": "Silver_Simple_GLTF",
      "pbrMetallicRoughness": {
        "baseColorFactor": [
          0.21204400062561035,
          0.21204400062561035,
          0.21204400062561035,
          1.0
        ],
        "metallicFactor": 0.0,
        "roughnessFactor": 0.5
      }
    },
    {
      "name": "All_Wood_GLTF",
      "pbrMetallicRoughness": {
        "baseColorTexture": {
          "index": 6,
          "texCoord": 1
        }
      }
    }
  ],
  "meshes": [
    {
      "name": "Black Metals001",
      "primitives": [
        {
          "attributes": {
            "NORMAL": 1,
            "POSITION": 0,
            "TEXCOORD_0": 2,
            "TEXCOORD_1": 3,
            "TEXCOORD_2": 4,
            "TEXCOORD_3": 5
          },
          "indices": 6,
          "material": 0,
          "mode": 4
        }
      ]
    },
    {
      "name": "Black Rubber001",
      "primitives": [
        {
          "attributes": {
            "NORMAL": 8,
            "POSITION": 7,
            "TEXCOORD_0": 9,
            "TEXCOORD_1": 10,
            "TEXCOORD_2": 11,
            "TEXCOORD_3": 12
          },
          "indices": 13,
          "material": 1,
          "mode": 4
        }
      ]
    },
    {
      "name": "Silver Metals001",
      "primitives": [
        {
          "attributes": {
            "NORMAL": 15,
            "POSITION": 14
          },
          "indices": 16,
          "material": 2,
          "mode": 4
        }
      ]
    },
    {
      "name": "Wood001",
      "primitives": [
        {
          "attributes": {
            "NORMAL": 18,
            "POSITION": 17,
            "TEXCOORD_0": 19,
            "TEXCOORD_1": 20,
            "TEXCOORD_2": 21,
            "TEXCOORD_3": 22,
            "TEXCOORD_4": 23,
            "TEXCOORD_5": 24,
            "TEXCOORD_6": 25
          },
          "indices": 26,
          "material": 3,
          "mode": 4
        }
      ]
    }
  ],
  "nodes": [
    {
      "matrix": [
        0.0254,
        0.0,
        0.0,
        0.0,
        0.0,
        0.0254,
        0.0,
        0.0,
        0.0,
        0.0,
        0.0254,
        0.0,
        0.0,
        0.0,
        0.0,
        1.0
      ],
      "mesh": 0,
      "name": "Black Metals001"
    },
    {
      "children": [
        0
      ],
      "matrix": [
        -1.0,
        -0.0,
        0.0,
        0.0,
        0.0,
        -1.5099580252808664e-07,
        -1.0,
        0.0,
        0.0,
        1.0,
        -1.5099580252808664e-07,
        0.0,
        0.6934670223236084,
        0.38079892215728756,
        0.0601292028427124,
        1.0
      ]
    },
    {
      "matrix": [
        0.0254,
        0.0,
        0.0,
        0.0,
        0.0,
        0.0254,
        0.0,
        0.0,
        0.0,
        0.0,
        0.0254,
        0.0,
        0.0,
        0.0,
        0.0,
        1.0
      ],
      "mesh": 1,
      "name": "Black Rubber001"
    },
    {
      "children": [
        2
      ],
      "matrix": [
        -1.0,
        -0.0,
        0.0,
        0.0,
        0.0,
        -1.5099580252808664e-07,
        -1.0,
        0.0,
        0.0,
        1.0,
        -1.5099580252808664e-07,
        0.0,
        0.6934670223236084,
        0.38079892215728756,
        0.0601292028427124,
        1.0
      ]
    },
    {
      "matrix": [
        0.0254,
        0.0,
        0.0,
        0.0,
        0.0,
        0.0254,
        0.0,
        0.0,
        0.0,
        0.0,
        0.0254,
        0.0,
        0.0,
        0.0,
        0.0,
        1.0
      ],
      "mesh": 2,
      "name": "Silver Metals001"
    },
    {
      "children": [
        4
      ],
      "matrix": [
        -1.0,
        -0.0,
        0.0,
        0.0,
        0.0,
        -8.742277657347586e-08,
        -1.0,
        0.0,
        0.0,
        1.0,
        -8.742277657347586e-08,
        0.0,
        0.6934670223236084,
        0.38079892215728756,
        0.0601292028427124,
        1.0
      ]
    },
    {
      "matrix": [
        0.0254,
        0.0,
        0.0,
        0.0,
        0.0,
        0.0254,
        0.0,
        0.0,
        0.0,
        0.0,
        0.0254,
        0.0,
        0.0,
        0.0,
        0.0,
        1.0
      ],
      "mesh": 3,
      "name": "Wood001"
    },
    {
      "children": [
        6
      ],
      "matrix": [
        1.0,
        0.0,
        0.0,
        0.0,
        0.0,
        0.0,
        -1.0,
        0.0,
        0.0,
        1.0,
        0.0,
        0.0,
        0.05429298567771911,
        0.7433861652374267,
        0.07048202900886535,
        1.0
      ]
    }
  ],
  "samplers": [
    {
      "magFilter": 9729,
      "minFilter": 9729,
      "wrapS": 10497,
      "wrapT": 10497
    },
    {
      "magFilter": 9729,
      "minFilter": 9729,
      "wrapS": 10497,
      "wrapT": 10497
    },
    {
      "magFilter": 9729,
      "minFilter": 9729,
      "wrapS": 10497,
      "wrapT": 10497
    },
    {
      "magFilter": 9729,
      "minFilter": 9729,
      "wrapS": 10497,
      "wrapT": 10497
    },
    {
      "magFilter": 9729,
      "minFilter": 9729,
      "wrapS": 10497,
      "wrapT": 10497
    },
    {
      "magFilter": 9729,
      "minFilter": 9729,
      "wrapS": 10497,
      "wrapT": 10497
    },
    {
      "magFilter": 9729,
      "minFilter": 9729,
      "wrapS": 10497,
      "wrapT": 10497
    }
  ],
  "scenes": [
    {
      "nodes": [
        1,
        3,
        5,
        7
      ]
    }
  ],
  "textures": [
    {
      "name": "texture_source0_sampler0",
      "sampler": 0,
      "source": 0
    },
    {
      "name": "texture_source1_sampler1",
      "sampler": 1,
      "source": 1
    },
    {
      "name": "texture_source2_sampler2",
      "sampler": 2,
      "source": 2
    },
    {
      "name": "texture_source3_sampler3",
      "sampler": 3,
      "source": 3
    },
    {
      "name": "texture_source4_sampler4",
      "sampler": 4,
      "source": 4
    },
    {
      "name": "texture_source5_sampler5",
      "sampler": 5,
      "source": 5
    },
    {
      "name": "texture_source6_sampler6",
      "sampler": 6,
      "source": 6
    }
  ]
}
