{
  "accessors": [
    {
      "bufferView": 2,
      "componentType": 5126,
      "count": 60434,
      "max": [
        5.534448623657227,
        6.513881206512451,
        12.349176406860352
      ],
      "min": [
        -8.110740661621094,
        -6.98514461517334,
        0.24135589599609375
      ],
      "type": "VEC3"
    },
    {
      "bufferView": 2,
      "byteOffset": 725208,
      "componentType": 5126,
      "count": 60434,
      "max": [
        0.9995546936988831,
        0.9999399185180664,
        0.9999692440032959
      ],
      "min": [
        -0.9996881484985352,
        -0.9999718070030212,
        -0.9986042380332947
      ],
      "type": "VEC3"
    },
    {
      "bufferView": 3,
      "componentType": 5126,
      "count": 60434,
      "max": [
        1.0,
        0.9953210949897766,
        0.9999997615814209,
        1.0
      ],
      "min": [
        -0.9999980330467224,
        -0.9912750124931335,
        -0.9999999403953552,
        -1.0
      ],
      "type": "VEC4"
    },
    {
      "bufferView": 1,
      "componentType": 5126,
      "count": 60434,
      "max": [
        0.9994217753410339,
        0.9858397245407104
      ],
      "min": [
        0.00048828125,
        0.0004890753189101815
      ],
      "type": "VEC2"
    },
    {
      "bufferView": 0,
      "componentType": 5125,
      "count": 299976,
      "type": "SCALAR"
    }
  ],
  "asset": {
    "extras": {
      "author": "carlosenriqueporraas (https://sketchfab.com/carlosenriqueporraas)",
      "license": "CC-BY-4.0 (http://creativecommons.org/licenses/by/4.0/)",
      "source": "https://sketchfab.com/3d-models/low-def-box-c567f01dcee647b8b5f97aa6c0debed0",
      "title": "low def box"
    },
    "generator": "Sketchfab-12.68.0",
    "version": "2.0"
  },
  "bufferViews": [
    {
      "buffer": 0,
      "byteLength": 1199904,
      "name": "floatBufferViews",
      "target": 34963
    },
    {
      "buffer": 0,
      "byteLength": 483472,
      "byteOffset": 1199904,
      "byteStride": 8,
      "name": "floatBufferViews",
      "target": 34962
    },
    {
      "buffer": 0,
      "byteLength": 1450416,
      "byteOffset": 1683376,
      "byteStride": 12,
      "name": "floatBufferViews",
      "target": 34962
    },
    {
      "buffer": 0,
      "byteLength": 966944,
      "byteOffset": 3133792,
      "byteStride": 16,
      "name": "floatBufferViews",
      "target": 34962
    }
  ],
  "buffers": [
    {
      "byteLength": 4100736,
      "uri": "scene.bin"
    }
  ],
  "images": [
    {
      "uri": "textures/tex_u1_v1_baseColor.jpeg"
    },
    {
      "uri": "textures/tex_u1_v1_normal.png"
    }
  ],
  "materials": [
    {
      "doubleSided": true,
      "name": "tex_u1_v1",
      "normalTexture": {
        "index": 1
      },
      "pbrMetallicRoughness": {
        "baseColorTexture": {
          "index": 0
        },
        "metallicFactor": 0.0
      }
    }
  ],
  "meshes": [
    {
      "name": "Object_0",
      "primitives": [
        {
          "attributes": {
            "NORMAL": 1,
            "POSITION": 0,
            "TANGENT": 2,
            "TEXCOORD_0": 3
          },
          "indices": 4,
          "material": 0,
          "mode": 4
        }
      ]
    }
  ],
  "nodes": [
    {
      "children": [
        1
      ],
      "matrix": [
        0.02464452963236441,
        -0.0019837334380979482,
        -4.40477307539033e-19,
        0.0,
        0.0,
        5.489883988180219e-18,
        -0.024724239483475685,
        0.0,
        0.0019837334380979482,
        0.02464452963236441,
        5.472184845781582e-18,
        0.0,
        -0.5092500448226929,
        -0.08305750787258148,
        -1.8442471521625033e-17,
        1.0
      ],
      "name": "Sketchfab_model"
    },
    {
      "children": [
        2
      ],
      "name": "model.obj.cleaner.materialmerger.gles"
    },
    {
      "mesh": 0,
      "name": "Object_2"
    }
  ],
  "samplers": [
    {
      "magFilter": 9729,
      "minFilter": 9987,
      "wrapS": 10497,
      "wrapT": 10497
    }
  ],
  "scene": 0,
  "scenes": [
    {
      "name": "Sketchfab_Scene",
      "nodes": [
        0
      ]
    }
  ],
  "textures": [
    {
      "sampler": 0,
      "source": 0
    },
    {
      "sampler": 0,
      "source": 1
    }
  ]
}
